<svg xmlns="http://www.w3.org/2000/svg" width="970.833" height="401.865" viewBox="0 0 970.833 401.865">
  <g id="title_image" data-name="title image" transform="translate(-229.109 -406.96)">
    <g id="Group_39" data-name="Group 39" transform="translate(254.543 406.96)">
      <path id="Path_125" data-name="Path 125" d="M1220.837,800.914h-919.2s-.793-7.59-1.028-19.849c-.132-7.14-.085-15.87.429-25.6.044-.793.088-1.6.136-2.41.269-4.462.629-9.125,1.116-13.927.044-.425.089-.855.136-1.283.531-5.023,1.191-10.24,2.014-15.6.671-4.356,1.443-8.815,2.348-13.341.061-.316.126-.637.19-.956q.7-3.456,1.5-6.964.311-1.373.64-2.757.643-2.7,1.348-5.411,1.715-6.652,3.836-13.379c.143-.453.289-.916.432-1.378q.965-2.992,2.015-6,1.6-4.569,3.41-9.138c.752-1.909,1.542-3.812,2.355-5.718a193.619,193.619,0,0,1,31.822-51.476c31.58-36.2,81.324-62.7,159.38-61.928,15.69.153,30.273-.255,43.883-1.157h.02q6.208-.408,12.147-.956l.041,0c90.163-8.291,135.339-39.207,176.411-69.361q2.211-1.623,4.411-3.243c14.365-10.581,28.4-20.962,43.9-30.127q5.947-3.523,12.215-6.787c25.682-13.31,56.07-22.979,98.068-25.062a104.755,104.755,0,0,1,11.98.078q2.231.143,4.414.385a85.371,85.371,0,0,1,42.872,16.8c31.488,23.919,47.134,70.715,38.945,129.135-5.544,39.564,6.981,61.016,28.432,75.038C1090.828,667.351,1218.588,649.276,1220.837,800.914Z" transform="translate(-300.543 -406.96)" fill="#f8fbff"/>
      <path id="Path_126" data-name="Path 126" d="M1244.393,952.483V934.42h-4.235V903.36h-22.706v31.06h-21.229V883.809H1172.8v32.854h-5.342V877.439h-23.426v73.542H1114.4v42.885h-11.07V974.774h-25.427v11.292h-14.6V935.515h-18.034v37.417H1027.24v137.1h235.246V952.483Z" transform="translate(-768.502 -709.926)" fill="#e7f1fb"/>
      <path id="Path_127" data-name="Path 127" d="M1940.092,1180.349v95.461H1712.764v-83.073h17.425v-22.67h17.426v30.63h14.111v-6.844h24.569v11.568h10.7v-25.985h28.629v-44.561h22.636v23.766h5.163v-19.906h22.639V1169.4h20.513v-18.821h21.945V1169.4h4.091v10.945Z" transform="translate(-1209.946 -875.703)" fill="#e7f1fb"/>
      <path id="Path_128" data-name="Path 128" d="M658.877,1043.429v132.4H451.625V1060.616h15.887v-31.444H483.4v42.481H496.26v-9.492h22.4v16.047h9.751v-36.039h26.1v-61.8h20.638v32.962h4.707V985.718H600.5v42.532H619.2v-26.1h20.005v26.1h3.73v15.179Z" transform="translate(-397.833 -776.207)" fill="#e7f1fb"/>
      <path id="Path_129" data-name="Path 129" d="M1700.164,477.73V851.772h-12.213V484.516Q1693.9,480.991,1700.164,477.73Z" transform="translate(-1193.968 -452.533)" fill="#deedff"/>
      <path id="Path_130" data-name="Path 130" d="M1034.721,785.317v264.526h-12.21V786.278Z" transform="translate(-765.456 -650.604)" fill="#deedff"/>
    </g>
    <g id="Group_40" data-name="Group 40" transform="translate(672.174 469.07)">
      <path id="Path_131" data-name="Path 131" d="M1556.682,581.4v29.078c0,3.659-.926,6.643-2.059,6.643h-.293c-1.133,0-2.059-2.985-2.059-6.643V584.646Q1554.482,583.023,1556.682,581.4Z" transform="translate(-1524.227 -581.403)" fill="#46a81e"/>
      <path id="Path_132" data-name="Path 132" d="M1502.608,648.781c-16.072,0-29.1,13.777-29.1,30.772h58.2C1531.709,662.558,1518.679,648.781,1502.608,648.781Z" transform="translate(-1473.506 -624.791)" fill="#6cc04a"/>
      <path id="Path_133" data-name="Path 133" d="M1522.837,649.331a11.975,11.975,0,0,0-2.556-.278c-10.472,0-18.96,13.734-18.96,30.675h5.112C1506.433,664.189,1513.574,651.351,1522.837,649.331Z" transform="translate(-1491.418 -624.966)" fill="#46a81e"/>
    </g>
    <g id="Group_41" data-name="Group 41" transform="translate(842.746 407.173)">
      <path id="Path_134" data-name="Path 134" d="M2035.753,407.941V491.5c0,.732-.01,1.449-.027,2.147-.156,6.517-1.011,11.527-2.035,11.527h-.293c-.949,0-1.753-4.312-1.988-10.135-.02-.48-.037-.97-.048-1.47,0-.034,0-.068,0-.105-.014-.64-.021-1.3-.021-1.964V407.557Q2033.57,407.7,2035.753,407.941Z" transform="translate(-2003.296 -407.557)" fill="#46a81e"/>
      <path id="Path_135" data-name="Path 135" d="M1981.679,648.781c-16.073,0-29.1,13.777-29.1,30.772h58.2C2010.78,662.558,1997.75,648.781,1981.679,648.781Z" transform="translate(-1952.577 -562.894)" fill="#6cc04a"/>
      <path id="Path_136" data-name="Path 136" d="M2001.908,649.331a11.974,11.974,0,0,0-2.556-.278c-10.472,0-18.961,13.734-18.961,30.675h5.112C1985.5,664.189,1992.646,651.351,2001.908,649.331Z" transform="translate(-1970.489 -563.069)" fill="#46a81e"/>
    </g>
    <path id="Path_137" data-name="Path 137" d="M2420.91,838.118H2230.762v.056h-66.614V455.81c31.488,24.284,47.134,71.795,38.945,131.106-5.544,40.168,6.98,61.947,28.432,76.183C2290.9,702.517,2418.66,684.166,2420.91,838.118Z" transform="translate(-1246.073 -31.457)" fill="#deedff"/>
    <g id="Group_48" data-name="Group 48" transform="translate(988.941 701.868)">
      <g id="Group_43" data-name="Group 43" transform="translate(56.067 41.874)">
        <path id="Path_138" data-name="Path 138" d="M2549.338,1370.6s-7.338-8.561-.453-14c0,0,5.03-3.045,9.13-2.8,0,0-5.811,9.744-3.931,10.713s5.692-11.324,5.692-11.324,11.445-1.11,15.127.66c0,0-9.784,8.006-7.723,8.483s12.629-7.382,12.629-7.382,10.651,1.813,10.084,8.31-4.239,8.5-5.852,8.332-11.05-3.775-11.256-2.453,5.476,5.641,9.453,5.844c0,0-7.51,8.282-12.5,5.892s-5.417-6.179-8.528-7.6-5.767-1.417-4.482.032,6.915,2.858,8.694,6.005,3.376,5.27-1.788,4.493-13.557-4.555-13.926-8.882Z" transform="translate(-2536.935 -1352.851)" fill="#46a81e"/>
        <g id="Group_42" data-name="Group 42" transform="translate(0 10.541)">
          <path id="Path_139" data-name="Path 139" d="M2579.162,1382.507s-28.931-1.115-35.321,7.159a20.923,20.923,0,0,1-5.761,8.085l-.678,1.847s5.013-5.286,6.807-5.606C2544.21,1393.993,2541.4,1383.742,2579.162,1382.507Z" transform="translate(-2531.439 -1382.457)" fill="#46a81e"/>
          <path id="Path_140" data-name="Path 140" d="M2527.294,1424.1a18.167,18.167,0,0,0-6.641,12.8l1.127.1s1.984-8.485,5.568-11.8S2527.294,1424.1,2527.294,1424.1Z" transform="translate(-2520.653 -1408.803)" fill="#46a81e"/>
        </g>
      </g>
      <g id="Group_45" data-name="Group 45" transform="translate(0 18.632)">
        <path id="Path_141" data-name="Path 141" d="M2406,1317.8s11.672-6.537,6.225-15.408c0,0-4.358-5.447-9.026-6.848,0,0,2.49,13.229,0,13.54s-1.712-14.941-1.712-14.941-12.295-5.913-17.119-5.447c0,0,7.626,12.918,5.136,12.606s-11.05-13.385-11.05-13.385-12.606-2.334-14.629,5.136,1.244,11.205,3.113,11.672,13.851.311,13.54,1.868-8.4,4.046-12.917,2.646c0,0,4.98,12.295,11.516,11.672s8.56-4.669,12.607-4.98,7,.778,4.98,1.868-8.871.357-12.14,3.135-5.913,4.49.156,5.735,16.964.467,19.143-4.2Z" transform="translate(-2363.182 -1287.573)" fill="#6cc04a"/>
        <g id="Group_44" data-name="Group 44" transform="translate(6.396 7.816)">
          <path id="Path_142" data-name="Path 142" d="M2381.147,1309.524s32.683,10.583,36.418,22.411a24.823,24.823,0,0,0,3.112,11.361v2.335s-3.424-7.937-5.291-9.027C2415.386,1336.6,2422.7,1326.332,2381.147,1309.524Z" transform="translate(-2381.147 -1309.524)" fill="#46a81e"/>
          <path id="Path_143" data-name="Path 143" d="M2489.349,1401.749a21.558,21.558,0,0,1,2.167,16.971l-1.3-.348s1.259-10.262-1.378-15.423S2489.349,1401.749,2489.349,1401.749Z" transform="translate(-2449.818 -1367.977)" fill="#46a81e"/>
        </g>
      </g>
      <g id="Group_47" data-name="Group 47" transform="translate(51.269)">
        <path id="Path_144" data-name="Path 144" d="M2517.292,1275.087s-15.386-8.616-8.206-20.31c0,0,5.744-7.18,11.9-9.026,0,0-3.282,17.438,0,17.848s2.256-19.695,2.256-19.695,16.207-7.8,22.567-7.18c0,0-10.053,17.028-6.77,16.617S2553.6,1235.7,2553.6,1235.7s16.617-3.077,19.284,6.77-1.641,14.771-4.1,15.386-18.259.41-17.849,2.462,11.078,5.334,17.028,3.488c0,0-6.565,16.207-15.182,15.386s-11.283-6.155-16.617-6.565-9.232,1.026-6.565,2.462,11.694.47,16,4.133,7.8,5.919-.206,7.56-22.361.615-25.234-5.539Z" transform="translate(-2507.177 -1235.243)" fill="#6cc04a"/>
        <g id="Group_46" data-name="Group 46" transform="translate(1.989 10.302)">
          <path id="Path_145" data-name="Path 145" d="M2576.172,1264.178s-43.082,13.95-48.006,29.542a32.726,32.726,0,0,1-4.1,14.976v3.077s4.513-10.463,6.975-11.9C2531.038,1299.874,2521.4,1286.334,2576.172,1264.178Z" transform="translate(-2520.04 -1264.178)" fill="#46a81e"/>
          <path id="Path_146" data-name="Path 146" d="M2516.786,1385.748s-6.644,10.089-2.856,22.37l1.709-.459s-1.659-13.527,1.816-20.331S2516.786,1385.748,2516.786,1385.748Z" transform="translate(-2512.763 -1341.23)" fill="#46a81e"/>
        </g>
      </g>
      <path id="Path_147" data-name="Path 147" d="M2479.62,1472.331a30.139,30.139,0,0,0,30.139-30.14H2449.48A30.139,30.139,0,0,0,2479.62,1472.331Z" transform="translate(-2418.754 -1368.507)" fill="#f1a34f"/>
      <path id="Path_148" data-name="Path 148" d="M2493.68,1472.1a30.159,30.159,0,0,1-33.883-29.909h7.488A30.144,30.144,0,0,0,2493.68,1472.1Z" transform="translate(-2425.397 -1368.507)" fill="#ffb973"/>
      <path id="Path_149" data-name="Path 149" d="M2509.423,1524.424h-61.111a3.718,3.718,0,0,1,3.718-3.718H2505.7a3.719,3.719,0,0,1,3.718,3.718Z" transform="translate(-2418.001 -1419.067)" fill="#f1a34f"/>
      <rect id="Rectangle_27" data-name="Rectangle 27" width="61.955" height="0.925" transform="translate(29.735 73.684)" fill="#d86713"/>
    </g>
    <g id="Group_54" data-name="Group 54" transform="translate(866.404 654.015)">
      <path id="Path_150" data-name="Path 150" d="M2176.8,1159.606a264.562,264.562,0,0,1,3.14-32.892c2.252-12.844,4.279-20.233,4.3-20.311.3-1.129,4.582-5.7,14.109-5.558s8.624,6.134,8.624,6.134h0a1.865,1.865,0,0,1-.069.533c-.091.309-8.837,31.587-8.458,71.972,0,.567.07,1.547.029,2.2,0,0-22.079.563-22.084,0C2175.625,1178.153,2176,1168.373,2176.8,1159.606Z" transform="translate(-2120.092 -1100.841)" fill="#d1a586"/>
      <path id="Path_151" data-name="Path 151" d="M2169.68,1179.284c.006.563.308,1.013.675,1.013h.008c.367-.009.659-.459.664-1.013h18.921c.006.563.307,1.013.675,1.013h.009c.374-.009.671-.474.666-1.043a277.992,277.992,0,0,1,1.57-31.883c2.515-23.76,7.165-39.64,7.231-39.86a1.957,1.957,0,0,0,.068-.533s.9-5.993-8.623-6.134-13.814,4.429-14.111,5.559c-.018.059-1.165,4.243-2.691,11.766-.506,2.492-1.051,5.349-1.612,8.544a264.9,264.9,0,0,0-3.139,32.892C2169.192,1168.373,2168.91,1175.755,2169.68,1179.284Z" transform="translate(-2115.747 -1100.841)" fill="#e5bd9e"/>
      <path id="Path_152" data-name="Path 152" d="M2169.68,1210.623c.006.563.308,1.013.675,1.013h.008c.367-.009.659-.459.664-1.013h18.921c.006.563.307,1.013.675,1.013h.009c.374-.009.671-.474.666-1.043a277.991,277.991,0,0,1,1.57-31.883c-3.128-15.078-15.219-26.611-18.125-29.2-.506,2.492-1.051,5.349-1.612,8.544a264.9,264.9,0,0,0-3.139,32.892C2169.192,1199.712,2168.91,1207.094,2169.68,1210.623Z" transform="translate(-2115.747 -1132.18)" fill="#dfb697"/>
      <g id="Group_49" data-name="Group 49" transform="translate(54.9 2.378)">
        <path id="Path_153" data-name="Path 153" d="M2191.317,1183.392l-.053-.037c-.016-.011-.027-.019-.034-.1h-.012a.5.5,0,0,0-.148-.391c-.6-.609-2.888-.584-5.792-.551a60.463,60.463,0,0,1-11.039-.6c-2.031-.351-.661-15.78.783-30.214.245-2.451.439-4.388.526-5.527.94-12.281,6.373-34.073,6.424-34.245.241-.918,3.509-4.322,10.594-4.21,2.68.04,4.579.7,5.644,1.954a3.66,3.66,0,0,1,.872,2.73,1.46,1.46,0,0,1-.054.411c-.029.119-4.926,28.308-5.726,35.072-1.32,11.16-1.845,34.231-1.868,35.52,0,.016,0,.032,0,.048l0,.064Zm-4.227-1.3c2.118,0,3.612.1,4.134.63l0,0c.009-.532.036-1.527.089-3.4.062-2.207.169-5.654.324-9.542.272-6.8.745-16.161,1.448-22.11.82-6.931,5.708-35.022,5.734-35.109a1.332,1.332,0,0,0,.046-.365,3.517,3.517,0,0,0-.825-2.579c-1.024-1.2-2.868-1.836-5.48-1.874-6.967-.092-10.15,3.165-10.383,4.052-.053.2-5.474,21.9-6.417,34.2-.087,1.142-.281,3.079-.527,5.532-.962,9.619-2.964,29.634-.961,29.981a60.382,60.382,0,0,0,11,.6C2185.92,1182.1,2186.528,1182.088,2187.091,1182.088Z" transform="translate(-2173.214 -1107.519)" fill="#d1a586"/>
      </g>
      <path id="Path_154" data-name="Path 154" d="M2100.981,1313.2H2026.8s1.727-6.9,44.688-5.868C2101.891,1308.06,2100.981,1313.2,2100.981,1313.2Z" transform="translate(-2024.031 -1233.745)" fill="#e5bd9e"/>
      <g id="Group_50" data-name="Group 50" transform="translate(70.413 80.525)">
        <path id="Path_155" data-name="Path 155" d="M2229.36,1397.959c-8.6-42.948-6.389-69.3-6.378-69.635.021-.661-1.214-1.261-1.879-1.283s-3.642-.2-3.985.371c-.45.741-2.182,33.212,10.637,70.547Z" transform="translate(-2216.785 -1327.004)" fill="#d1a586"/>
      </g>
      <g id="Group_51" data-name="Group 51" transform="translate(13.726 80.525)">
        <path id="Path_156" data-name="Path 156" d="M2057.574,1397.959c8.6-42.948,6.39-69.3,6.378-69.635-.021-.661,1.214-1.261,1.879-1.283s3.642-.2,3.985.371c.451.741,2.183,33.212-10.636,70.547Z" transform="translate(-2057.574 -1327.004)" fill="#d1a586"/>
      </g>
      <g id="Group_52" data-name="Group 52" transform="translate(0 80.525)">
        <path id="Path_157" data-name="Path 157" d="M2019.022,1397.959c8.6-42.948,6.389-69.3,6.379-69.635-.022-.661,1.214-1.261,1.878-1.283s3.642-.2,3.985.371c.45.741,2.182,33.212-10.637,70.547Z" transform="translate(-2019.022 -1327.004)" fill="#a0795f"/>
      </g>
      <g id="Group_53" data-name="Group 53" transform="translate(56.594 80.525)">
        <path id="Path_158" data-name="Path 158" d="M2190.549,1397.959c-8.6-42.948-6.39-69.3-6.379-69.635.022-.661-1.214-1.261-1.878-1.283s-3.642-.2-3.985.371c-.45.741-2.182,33.212,10.636,70.547Z" transform="translate(-2177.974 -1327.004)" fill="#a0795f"/>
      </g>
      <path id="Rectangle_28" data-name="Rectangle 28" d="M1.992,0H75.229A1.991,1.991,0,0,1,77.22,1.991v0a1.991,1.991,0,0,1-1.991,1.991H1.991A1.991,1.991,0,0,1,0,1.992v0A1.992,1.992,0,0,1,1.992,0Z" transform="translate(78.426 81.658) rotate(180)" fill="#d1a586"/>
    </g>
    <g id="Group_60" data-name="Group 60" transform="translate(585.663 651.914)">
      <path id="Path_159" data-name="Path 159" d="M1388.307,1154.517a272,272,0,0,1,3.141-33.347c2.252-13.021,4.279-20.512,4.3-20.592.3-1.145,4.582-5.778,14.109-5.636s8.624,6.219,8.624,6.219h0a1.961,1.961,0,0,1-.068.54c-.092.313-8.838,32.023-8.459,72.966.006.575.07,1.569.029,2.23,0,0-22.078.57-22.084,0C1387.132,1173.321,1387.508,1163.405,1388.307,1154.517Z" transform="translate(-1331.599 -1094.94)" fill="#d1a586"/>
      <path id="Path_160" data-name="Path 160" d="M1381.188,1174.467c.006.57.308,1.027.674,1.027h.009c.367-.009.66-.465.664-1.027h18.921c.006.57.307,1.027.675,1.027h.009c.374-.009.671-.48.666-1.057a285.614,285.614,0,0,1,1.57-32.324c2.515-24.088,7.165-40.188,7.231-40.411a2.013,2.013,0,0,0,.068-.54s.9-6.076-8.623-6.219-13.813,4.491-14.11,5.636c-.018.06-1.166,4.3-2.691,11.928-.505,2.526-1.051,5.424-1.612,8.662a272.231,272.231,0,0,0-3.139,33.346C1380.7,1163.4,1380.418,1170.89,1381.188,1174.467Z" transform="translate(-1327.254 -1094.94)" fill="#e5bd9e"/>
      <path id="Path_161" data-name="Path 161" d="M1381.188,1206.24c.006.57.308,1.027.674,1.027h.009c.367-.009.66-.465.664-1.027h18.921c.006.57.307,1.027.675,1.027h.009c.374-.009.671-.48.666-1.057a285.612,285.612,0,0,1,1.57-32.323c-3.129-15.287-15.219-26.979-18.125-29.606-.505,2.526-1.051,5.424-1.612,8.662a272.226,272.226,0,0,0-3.139,33.346C1380.7,1195.178,1380.418,1202.663,1381.188,1206.24Z" transform="translate(-1327.254 -1126.713)" fill="#dfb697"/>
      <g id="Group_55" data-name="Group 55" transform="translate(54.899 2.412)">
        <path id="Path_162" data-name="Path 162" d="M1402.823,1178.634l-.053-.037c-.016-.011-.027-.019-.034-.095h-.012a.516.516,0,0,0-.152-.4c-.6-.614-2.89-.588-5.788-.555a59.741,59.741,0,0,1-11.039-.608c-2.031-.356-.661-16,.782-30.626.245-2.488.439-4.452.527-5.608.935-12.384,6.373-34.543,6.424-34.718.241-.931,3.509-4.382,10.594-4.267,2.664.039,4.556.7,5.626,1.958a3.745,3.745,0,0,1,.891,2.79,1.489,1.489,0,0,1-.054.416c-.029.12-4.925,28.7-5.726,35.557-1.318,11.294-1.845,34.708-1.868,36.011,0,.016,0,.032,0,.049l0,.065Zm-4.226-1.32c2.113,0,3.6.1,4.131.634l0,.005c.009-.54.037-1.549.089-3.45.062-2.238.169-5.733.324-9.674.272-6.9.744-16.384,1.448-22.416.818-7.013,5.707-35.5,5.733-35.593a1.351,1.351,0,0,0,.046-.37,3.6,3.6,0,0,0-.843-2.637c-1.028-1.207-2.865-1.839-5.461-1.878l-.321,0c-6.739,0-9.832,3.225-10.061,4.11-.054.2-5.475,22.216-6.417,34.677l-.108-.009.108.009c-.087,1.158-.281,3.124-.527,5.613-.962,9.751-2.963,30.04-.961,30.391a59.537,59.537,0,0,0,11,.605C1397.427,1177.321,1398.034,1177.314,1398.6,1177.314Z" transform="translate(-1384.72 -1101.715)" fill="#d1a586"/>
      </g>
      <path id="Path_163" data-name="Path 163" d="M1312.488,1310.237h-74.181s1.728-6.991,44.689-5.95C1313.4,1305.024,1312.488,1310.237,1312.488,1310.237Z" transform="translate(-1235.538 -1229.681)" fill="#e5bd9e"/>
      <g id="Group_56" data-name="Group 56" transform="translate(70.413 81.638)">
        <path id="Path_164" data-name="Path 164" d="M1440.867,1396.166c-8.6-43.542-6.389-70.261-6.378-70.6.021-.67-1.214-1.279-1.879-1.3s-3.642-.2-3.985.376c-.45.752-2.182,33.671,10.637,71.522Z" transform="translate(-1428.292 -1324.229)" fill="#d1a586"/>
      </g>
      <g id="Group_57" data-name="Group 57" transform="translate(13.726 81.638)">
        <path id="Path_165" data-name="Path 165" d="M1269.081,1396.166c8.6-43.542,6.389-70.261,6.378-70.6-.021-.67,1.214-1.279,1.879-1.3s3.641-.2,3.985.376c.45.752,2.182,33.671-10.637,71.522Z" transform="translate(-1269.081 -1324.229)" fill="#d1a586"/>
      </g>
      <g id="Group_58" data-name="Group 58" transform="translate(0 81.638)">
        <path id="Path_166" data-name="Path 166" d="M1230.529,1396.166c8.6-43.542,6.39-70.261,6.379-70.6-.022-.67,1.214-1.279,1.878-1.3s3.642-.2,3.985.376c.45.752,2.182,33.671-10.637,71.522Z" transform="translate(-1230.529 -1324.229)" fill="#a0795f"/>
      </g>
      <g id="Group_59" data-name="Group 59" transform="translate(56.594 81.638)">
        <path id="Path_167" data-name="Path 167" d="M1402.056,1396.166c-8.6-43.542-6.389-70.261-6.378-70.6.021-.67-1.214-1.279-1.879-1.3s-3.641-.2-3.985.376c-.45.752-2.182,33.671,10.637,71.522Z" transform="translate(-1389.481 -1324.229)" fill="#a0795f"/>
      </g>
      <rect id="Rectangle_29" data-name="Rectangle 29" width="77.22" height="4.038" rx="2.019" transform="translate(78.426 82.786) rotate(180)" fill="#d1a586"/>
    </g>
    <g id="Group_69" data-name="Group 69" transform="translate(684 596.552)">
      <g id="Group_67" data-name="Group 67" transform="translate(0.856 0)">
        <path id="Path_168" data-name="Path 168" d="M1525.788,1155.988s6.13,2.488,10.487-3.763C1536.275,1152.225,1529.2,1151.025,1525.788,1155.988Z" transform="translate(-1519.855 -1076.385)" fill="#6bb7bf"/>
        <path id="Path_169" data-name="Path 169" d="M1519.151,1151.723a3,3,0,0,0-3-2.265S1517.119,1151.676,1519.151,1151.723Z" transform="translate(-1513.65 -1074.685)" fill="#6bb7bf"/>
        <path id="Path_170" data-name="Path 170" d="M1528.207,1114.5a4.01,4.01,0,0,0,4.085-2.939S1529.072,1111.919,1528.207,1114.5Z" transform="translate(-1521.413 -1050.281)" fill="#6bb7bf"/>
        <g id="Group_62" data-name="Group 62" transform="translate(4.934 7.106)">
          <path id="Path_171" data-name="Path 171" d="M1536.984,987.688c-6-1.286-6.1-6.191-6.1-6.191C1537.948,983.729,1536.984,987.688,1536.984,987.688Z" transform="translate(-1528.072 -973.632)" fill="#6bb7bf"/>
          <path id="Path_172" data-name="Path 172" d="M1549.17,991.448a5.418,5.418,0,0,0,6.4-2.3S1551.254,988.419,1549.17,991.448Z" transform="translate(-1539.846 -978.511)" fill="#6bb7bf"/>
          <g id="Group_61" data-name="Group 61" transform="translate(0 3.665)">
            <path id="Path_173" data-name="Path 173" d="M1524.1,1052.919l-.774.892a.2.2,0,0,1-.341-.129,322.318,322.318,0,0,1,5.942-60.914,194.086,194.086,0,0,1,5.948-23.068h0c-.03.084-2.718,8.761-5.647,23.164-2.7,13.257-5.781,30.583-5,59.715A.5.5,0,0,1,1524.1,1052.919Z" transform="translate(-1522.983 -969.699)" fill="#6bb7bf"/>
          </g>
          <path id="Path_174" data-name="Path 174" d="M1551.559,959.63c-.956.769-4.619,4.044-1.066,6.57,0,0,2.723.863,3.625-1.235a13.353,13.353,0,0,0,.924-4.143.361.361,0,0,0-.332-.381,2.891,2.891,0,0,1-.769-.174c-.337-.131-.508-.64-.964-.752a2.7,2.7,0,0,0-.908-.1A.961.961,0,0,0,1551.559,959.63Z" transform="translate(-1539.719 -959.407)" fill="#f99746"/>
          <path id="Path_175" data-name="Path 175" d="M1550.525,975.92a2.2,2.2,0,0,1,.683,2.258l-.011.514a2.43,2.43,0,0,1,1.618-1.682A2.877,2.877,0,0,1,1550.525,975.92Z" transform="translate(-1540.719 -970.04)" fill="#6bb7bf"/>
          <path id="Path_176" data-name="Path 176" d="M1536.984,987.688c-6-1.286-6.1-6.191-6.1-6.191S1535.636,984.106,1536.984,987.688Z" transform="translate(-1528.072 -973.632)" fill="#8ad8db"/>
        </g>
        <g id="Group_64" data-name="Group 64" transform="translate(1.731 4.802)">
          <path id="Path_177" data-name="Path 177" d="M1520.342,984.959a5.417,5.417,0,0,1-6.354-2.425S1518.319,981.889,1520.342,984.959Z" transform="translate(-1513.988 -971.96)" fill="#6bb7bf"/>
          <g id="Group_63" data-name="Group 63" transform="translate(3.973 3.677)">
            <path id="Path_178" data-name="Path 178" d="M1534.253,1046.684l.757.907a.194.194,0,0,0,.343-.121,322.356,322.356,0,0,0-4.72-61.021,194.059,194.059,0,0,0-5.485-23.183h0c.028.085,2.542,8.814,5.182,23.272,2.43,13.309,5.168,30.693,3.8,59.8A.5.5,0,0,0,1534.253,1046.684Z" transform="translate(-1525.148 -963.265)" fill="#6bb7bf"/>
          </g>
          <path id="Path_179" data-name="Path 179" d="M1519.143,953.175c.941.788,4.537,4.136.934,6.59,0,0-2.74.808-3.6-1.308a13.347,13.347,0,0,1-.841-4.16.361.361,0,0,1,.339-.375,2.873,2.873,0,0,0,.772-.159c.34-.124.521-.629.978-.732a2.689,2.689,0,0,1,.91-.083A.959.959,0,0,1,1519.143,953.175Z" transform="translate(-1515.049 -952.938)" fill="#f99746"/>
          <path id="Path_180" data-name="Path 180" d="M1526.694,969.6a2.2,2.2,0,0,0-.728,2.243v.514a2.43,2.43,0,0,0-1.585-1.714A2.877,2.877,0,0,0,1526.694,969.6Z" transform="translate(-1520.681 -963.669)" fill="#6bb7bf"/>
        </g>
        <g id="Group_66" data-name="Group 66" transform="translate(7.663)">
          <path id="Path_181" data-name="Path 181" d="M1536.322,970.45a5.418,5.418,0,0,0,5.746-3.638S1537.7,967.039,1536.322,970.45Z" transform="translate(-1534.302 -957.07)" fill="#6bb7bf"/>
          <g id="Group_65" data-name="Group 65" transform="translate(1.68 3.77)">
            <path id="Path_182" data-name="Path 182" d="M1543.822,1033.606l-.562,1.039a.2.2,0,0,1-.361-.051,322.4,322.4,0,0,1-7.485-60.744,194.065,194.065,0,0,1,.775-23.81h0c-.011.089-.742,9.143-.46,23.838.259,13.526,1.027,31.108,8.142,59.368A.5.5,0,0,1,1543.822,1033.606Z" transform="translate(-1535.366 -950.04)" fill="#6bb7bf"/>
          </g>
          <path id="Path_183" data-name="Path 183" d="M1532.351,939.873c-.766.959-3.625,4.954.392,6.645,0,0,2.846.248,3.268-2a13.346,13.346,0,0,0,0-4.244.361.361,0,0,0-.407-.3,2.879,2.879,0,0,1-.788,0c-.358-.054-.636-.513-1.1-.523a2.705,2.705,0,0,0-.908.1A.961.961,0,0,0,1532.351,939.873Z" transform="translate(-1530.649 -939.45)" fill="#f99746"/>
          <path id="Path_184" data-name="Path 184" d="M1533.322,957.388a2.2,2.2,0,0,1,1.159,2.054l.1.5a2.429,2.429,0,0,1,1.213-1.994A2.879,2.879,0,0,1,1533.322,957.388Z" transform="translate(-1532.37 -951.001)" fill="#6bb7bf"/>
        </g>
        <path id="Path_185" data-name="Path 185" d="M1545.552,957.081s0-3.154,2.717-4.143C1548.269,952.938,1548.868,955.568,1545.552,957.081Z" transform="translate(-1532.583 -948.136)" fill="#6bb7bf"/>
        <path id="Path_186" data-name="Path 186" d="M1523.669,944.734a3.2,3.2,0,0,0-2.146-3.1S1520.987,943.874,1523.669,944.734Z" transform="translate(-1517.081 -940.856)" fill="#ed9f4a"/>
        <path id="Path_187" data-name="Path 187" d="M1545.875,983.259a3.5,3.5,0,0,0-1.036-4.278A4.107,4.107,0,0,0,1545.875,983.259Z" transform="translate(-1531.984 -964.906)" fill="#ed9f4a"/>
        <path id="Path_188" data-name="Path 188" d="M1552.43,987.985a1.3,1.3,0,0,1,1.125-1.373S1553.748,987.624,1552.43,987.985Z" transform="translate(-1537.001 -969.82)" fill="#6bb7bf"/>
        <path id="Path_189" data-name="Path 189" d="M1513.173,975.927s-.964-1.995-4.047-1.648C1509.126,974.28,1509.588,976.419,1513.173,975.927Z" transform="translate(-1509.126 -961.853)" fill="#6bb7bf"/>
      </g>
      <path id="Path_190" data-name="Path 190" d="M1528.669,1090.657H1508.9a2.179,2.179,0,0,1-2.157-2.492l9.2-63.419a1.2,1.2,0,0,1,1.191-1.031h2.937a1.286,1.286,0,0,1,1.271,1.1l9.42,63.415A2.12,2.12,0,0,1,1528.669,1090.657Z" transform="translate(-1506.721 -993.713)" fill="#f99746"/>
      <g id="Group_68" data-name="Group 68" transform="translate(1.187 30.017)">
        <path id="Path_191" data-name="Path 191" d="M1515.428,1088.766l4.884-65.01a1.2,1.2,0,0,0-1.031,1.016l-9.2,63.419a2.179,2.179,0,0,0,2.157,2.493h3.951A2.336,2.336,0,0,1,1515.428,1088.766Z" transform="translate(-1510.056 -1023.756)" fill="#ffb278"/>
      </g>
    </g>
    <g id="Group_73" data-name="Group 73" transform="translate(807.559 598.892)">
      <path id="Path_192" data-name="Path 192" d="M2016.281,1192.278s-13.561,15.489-16.336,15.236c-2.836-.258-4.566-1.151-7.034,0-1.773.828-7.379,5.337-5.874,5.038s4.228-.648,4.947-.716c.99-.094,2.579-.116,3.657-.3.682-.119,3.146-.188,3.967-.215,3.569-.118,20.45-9.979,20.45-9.979Z" transform="translate(-1939.418 -1104.6)" fill="#ffb27d"/>
      <g id="Group_70" data-name="Group 70" transform="translate(40.711 69.274)">
        <path id="Path_193" data-name="Path 193" d="M1981.931,1142.452a3.783,3.783,0,0,0-2.347-.043v-1.1a5.767,5.767,0,0,0-.047-.718h-11.4a5.721,5.721,0,0,0-.047.718v2.237a5.738,5.738,0,0,0,10.053,3.79h0s2.712-.667,3.563-1.678S1982.836,1143.011,1981.931,1142.452Zm-.6,2.068c-.288.744-1.581,1.144-2.219,1.3a5.675,5.675,0,0,0,.459-1.891,1.679,1.679,0,0,1,1.47-.771C1981.448,1143.231,1981.694,1143.579,1981.33,1144.52Z" transform="translate(-1968.093 -1140.589)" fill="#c45446"/>
        <path id="Path_194" data-name="Path 194" d="M1970.714,1141.307v2.238a5.764,5.764,0,0,0,5.744,5.746,5.273,5.273,0,0,0,.772-.056,5.762,5.762,0,0,1-4.972-5.691v-2.238a5.689,5.689,0,0,1,.047-.719h-1.544A5.644,5.644,0,0,0,1970.714,1141.307Z" transform="translate(-1969.781 -1140.588)" fill="#e37970"/>
        <rect id="Rectangle_30" data-name="Rectangle 30" width="4.69" height="0.702" transform="translate(3.396 8.201)" fill="#c45446"/>
      </g>
      <path id="Path_195" data-name="Path 195" d="M2090.208,955.051s.613-7.78,11.8-5.759c2.958.534,4.992-4.741,9.834-2.861,10.427,4.048,11.041-1.3,14.054,6.2,1.261,3.14,9.283,6.794,6.833,12.22s1.649,9.075-1.23,13.326c-1.49,2.2-.884,6.132-7.916,6.272-3.5.07-8.956,6.559-12.885,7.737s-15.73-.522-15.285-5.914c.347-4.206-4.559-3.856-7.573-8.692-2.634-4.227,2.066-5.292-.448-12.125C2085.553,960.451,2090.352,959.23,2090.208,955.051Z" transform="translate(-2003.935 -946.024)" fill="#1c468a"/>
      <g id="Group_71" data-name="Group 71" transform="translate(0 181.965)">
        <path id="Path_196" data-name="Path 196" d="M1878.512,1475.531c.24,2.6-3.383,3.235-7.578,3.444s-2.928,1.068-8.678,2.11-8.054-.532-8.471-1.309c-.371-.689,2.3-1.767,5.151-2.985.359-.152.718-.309,1.077-.466,3.207-1.41,5.006-4.286,7.506-6.952,2.368-2.525,4.616-10.611,4.616-10.611l7.814-1.668s-2.194,7.277-2.955,10.384c-.448,1.828.213,3.871.8,5.426A10.212,10.212,0,0,1,1878.512,1475.531Z" transform="translate(-1853.751 -1457.093)" fill="#ffb27d"/>
        <path id="Path_197" data-name="Path 197" d="M1870.934,1507.569c-4.2.209-2.928,1.068-8.678,2.11s-8.054-.532-8.471-1.309c-.371-.689,2.3-1.767,5.151-2.985l.045.048a16.374,16.374,0,0,0,8.71.1c3.8-1.033,7.482-3.306,10.1-4.04a10.212,10.212,0,0,1,.719,2.629C1878.753,1506.727,1875.13,1507.36,1870.934,1507.569Z" transform="translate(-1853.751 -1485.686)" fill="#c65447"/>
      </g>
      <path id="Path_198" data-name="Path 198" d="M1975.6,1232.194s-43.3,1.946-53.079,8.115-25.452,78.029-25.452,78.029a6.375,6.375,0,0,0,3.128,1.009c2.01.218,6.436-.964,6.436-.964s22.531-32.153,24.118-40.253,1.2-15.328,4.813-15.521,48.662,5.477,55.476-6.528S1975.6,1232.194,1975.6,1232.194Z" transform="translate(-1881.643 -1130.304)" fill="#163560"/>
      <g id="Group_72" data-name="Group 72" transform="translate(17.865 182.257)">
        <path id="Path_199" data-name="Path 199" d="M1928.69,1476.353c.24,2.6-3.383,3.235-7.579,3.444s-2.928,1.068-8.678,2.11-8.054-.532-8.47-1.309c-.371-.689,2.3-1.768,5.152-2.986.358-.152.718-.309,1.077-.466,3.206-1.41,5.006-4.285,7.505-6.952,2.368-2.526,4.616-10.611,4.616-10.611l7.814-1.669s-2.194,7.277-2.956,10.384c-.448,1.827.213,3.87.8,5.425A10.243,10.243,0,0,1,1928.69,1476.353Z" transform="translate(-1903.928 -1457.914)" fill="#ffb27d"/>
        <path id="Path_200" data-name="Path 200" d="M1921.111,1508.39c-4.2.209-2.928,1.068-8.678,2.11s-8.054-.532-8.47-1.309c-.371-.689,2.3-1.768,5.152-2.986l.044.048a16.376,16.376,0,0,0,8.71.1c3.8-1.033,7.482-3.306,10.1-4.041a10.241,10.241,0,0,1,.719,2.629C1928.929,1507.548,1925.307,1508.181,1921.111,1508.39Z" transform="translate(-1903.928 -1486.507)" fill="#c65447"/>
      </g>
      <path id="Path_201" data-name="Path 201" d="M2023.614,1235.07s-46.125,2.184-55.653,8.728-22.4,78.96-22.4,78.96a6.37,6.37,0,0,0,3.165.887c2.017.139,6.394-1.214,6.394-1.214s21.262-33,22.533-41.161.6-15.363,4.206-15.7,48.839,3.578,55.18-8.682S2023.614,1235.07,2023.614,1235.07Z" transform="translate(-1912.875 -1132.156)" fill="#1c468a"/>
      <path id="Path_202" data-name="Path 202" d="M2129.095,1042.146a.86.86,0,0,0-.059-.072,7.254,7.254,0,0,0-1.287-1.127l-.016-.013h0c-3.768-2.632-10.5-3.2-10.5-3.2v0h0v0s-.736-.07-1.9-.123a34.888,34.888,0,0,1-2.2-10.623l-.667.178-11.223,3.01s.5,3.562.729,6.933c.052.739.089,1.467.107,2.148-.325.119-7.308,1.1-8.826,2.734s-4.554,12.5-5.32,14.428l43.208.707S2132.219,1045.842,2129.095,1042.146Z" transform="translate(-2004.549 -998.165)" fill="#ffb27d"/>
      <path id="Path_203" data-name="Path 203" d="M2108.018,1144.642c-5.115.487-22.357-9.925-28.1-13.311-.1-.057-.2-.116-.29-.17-2.392-1.406-5.758-2.069-8.958-2.6-4.077-.667-7.882-1.116-9.1-2.573-1.449-1.736,2.814-3.659,6.242-5.653,1.725-1.007,3.244-2.035,3.717-3.06.364-.806.337-2.573.092-4.833v0c-.041-.422-.1-.861-.157-1.317a14.63,14.63,0,0,1-1.028,1.776,26.065,26.065,0,0,1-3.662,4.285,12.166,12.166,0,0,1-4.255,2.934,3.351,3.351,0,0,1-2.031-.184c-1.793-.7-3.526-2.675-4.9-4.577-.324-.449-.63-.9-.909-1.324-.939-1.423-1.606-2.6-1.858-2.883-.765-.847,3.08-2.525,4.659-3.785s7.773-25.723,7.773-25.723c.766-1.926,3.8-12.793,5.319-14.43,0,0,5.922,7.232,13.6,6.817,7.624-.408,20.682-7.763,20.883-7.879a4.753,4.753,0,0,1,1.369,1.212c3.124,3.7,2.038,14.985,2.038,14.985s-5.977,26.338-5.977,29c0,4.874,4.03,16.077,5.953,24.147C2109.659,1140.6,2110.036,1144.451,2108.018,1144.642Z" transform="translate(-1981.877 -1023.379)" fill="#6bb7bf"/>
      <path id="Path_204" data-name="Path 204" d="M2125.308,1030.505s.5,3.562.729,6.933c6.352-.6,9.329-6.634,10.493-9.943Z" transform="translate(-2028.621 -998.487)" fill="#f4a269"/>
      <path id="Path_205" data-name="Path 205" d="M2108.747,998.57s15.074-.756,14.459-10.136.916-15.8-8.734-15.709-11.284,3.788-11.84,6.968S2104.81,998.525,2108.747,998.57Z" transform="translate(-2013.972 -963.218)" fill="#ffb27d"/>
      <path id="Path_206" data-name="Path 206" d="M2118.153,970.826s3.6-.841,4.78.911.336,2.733,2.965,3.469,3.522.683,3.259,2.523,2.642,3.207,2.766,4.678a2.576,2.576,0,0,0,2.49,2.313c1.157.105.631-18.976-3.836-19.817s-8.778.158-10.093,1.209S2118.153,970.826,2118.153,970.826Z" transform="translate(-2024.014 -957.979)" fill="#1c468a"/>
      <path id="Path_207" data-name="Path 207" d="M2103.384,972.983s-3.5-.245-4.135,1.752.211,2.471-.683,3.679-.376,3.353-.376,3.353-6.93-12.762.376-13.6S2105.68,968.813,2103.384,972.983Z" transform="translate(-2009.244 -960.136)" fill="#1c468a"/>
      <path id="Path_208" data-name="Path 208" d="M2074.98,1142.32a38.848,38.848,0,0,1-4.666,9.066,12.168,12.168,0,0,1-4.254,2.934,3.351,3.351,0,0,1-2.032-.184c-1.793-.7-3.526-2.675-4.9-4.577-.324-.449-.63-.9-.909-1.324,4.789-3.843,13.865-12.634,14.809-24.665C2074.316,1107.139,2075.048,1143.075,2074.98,1142.32Z" transform="translate(-1985.418 -1057.582)" fill="#599dad"/>
      <path id="Path_209" data-name="Path 209" d="M2074.535,1204.484c1.671-2.549,5.071-5.061,9.948-7.035-2.246,3.363-6.088,6.776-7.916,7.219A3.35,3.35,0,0,1,2074.535,1204.484Z" transform="translate(-1995.925 -1107.93)" fill="#599dad"/>
      <path id="Path_210" data-name="Path 210" d="M2115.816,1128.4s-3.764,37.825-20.42,43.019c-.1-.058-.2-.116-.289-.17-2.393-1.406-5.759-2.069-8.958-2.6-4.077-.667-7.882-1.116-9.1-2.573-1.45-1.736,2.814-3.659,6.242-5.653,1.725-1.007,3.244-2.035,3.717-3.06.364-.806.337-2.573.092-4.833v0C2103.261,1146.547,2115.816,1128.4,2115.816,1128.4Z" transform="translate(-1997.356 -1063.464)" fill="#599dad"/>
      <path id="Path_211" data-name="Path 211" d="M2062.4,1088.545c-1.744-7.863-9.661-3.351-9.661-3.351-2.743-.626-22.886,32.022-24.5,32.761-1.367.627-19.93-4.765-25.567-6.426-1.455-1.142-6.568-5.109-7.462-5.177-1.045-.078-8.03,1.716-7.987,2.825s1.679,2.736,4.258,3.147c1.954.312,5.269,1.6,7.382,1.92h0s20.489,13.956,29.21,15.659C2035.926,1131.437,2064.145,1096.408,2062.4,1088.545Z" transform="translate(-1939.702 -1034.813)" fill="#ffb27d"/>
      <path id="Path_212" data-name="Path 212" d="M2064.6,1114.347s-4.722,12.136.935,16.749,17.937,3.062,31.387-15.695,18.923-28.968,11.942-31.95-12.752,1.7-16.333,8.991c-3.723,7.583-10.583,18.083-14.7,18.482S2064.6,1114.347,2064.6,1114.347Z" transform="translate(-1988.34 -1033.933)" fill="#6bb7bf"/>
    </g>
    <g id="Group_76" data-name="Group 76" transform="translate(713.996 524.884)">
      <path id="Path_213" data-name="Path 213" d="M1735.279,832.407l.01,1.832s-.5,5.729,6.557,6.566,12.841.729,12.65-3.693c-.636-3.423-1.775-8.737-1.821-11.569a19.938,19.938,0,0,1,.25-3.431l-13.671-.273-4.026.658Z" transform="translate(-1683.864 -792.047)" fill="#ffb27d"/>
      <path id="Path_214" data-name="Path 214" d="M1735.227,822.5l.051,9.91a11.562,11.562,0,0,0,4.928,1.087c6.283,0,10.344-4.608,12.467-7.951a19.938,19.938,0,0,1,.25-3.431l-13.671-.273Z" transform="translate(-1683.864 -792.047)" fill="#e2915a"/>
      <path id="Path_215" data-name="Path 215" d="M1747.056,777.543c-1.586,8.537-12.6,8.256-17.361,7.72-1.339-.149-2.182-.32-2.182-.32-1.51-.4-2.353-2.783-2.745-5.9-.777-6.168.205-15.221,1.246-17.536,1.569-3.484,4.522-7.253,15.615-4.534S1749.092,766.606,1747.056,777.543Z" transform="translate(-1676.949 -749.677)" fill="#ffb27d"/>
      <path id="Path_216" data-name="Path 216" d="M1784.958,1509H1769.35a37.675,37.675,0,0,1,1.245-5.6,15.894,15.894,0,0,1,.884-2.249c1.518-3.03,11.16-1.1,11.16-1.1s.9.767,1.595,3.7A31.118,31.118,0,0,1,1784.958,1509Z" transform="translate(-1705.838 -1228.389)" fill="#233862"/>
      <path id="Path_217" data-name="Path 217" d="M1622.922,1492.581c-.043,2.124-.31,4.133-1.08,4.926h-30.873c.392-1.117,1.5-2.8,4.673-3.312,3.6-.583,9.216-2.317,12.493-5.782a9.3,9.3,0,0,0,2.419-4.38c1.453-6.467,12.01,1.981,12.01,1.981A52.3,52.3,0,0,1,1622.922,1492.581Z" transform="translate(-1590.969 -1216.899)" fill="#233862"/>
      <path id="Path_218" data-name="Path 218" d="M1673.335,1173.687a48.61,48.61,0,0,0-.775,5.7c-.982,19.144-16.115,62.917-18.822,63.937-4.189,1.581-10.785-1.779-14.235-2.878a2.96,2.96,0,0,1-2.076-3.362c7.495-34.454,10.249-84.065,11.251-113.438a133.3,133.3,0,0,1,3.046-25.015s36.91-9.848,37.129,2.61C1689.047,1112.268,1676.626,1155.5,1673.335,1173.687Z" transform="translate(-1620.846 -967.91)" fill="#2b478b"/>
      <path id="Path_219" data-name="Path 219" d="M1693.793,1173.687l-24.657-50.037a133.285,133.285,0,0,1,3.046-25.015s36.91-9.848,37.129,2.61C1709.505,1112.268,1697.085,1155.5,1693.793,1173.687Z" transform="translate(-1641.305 -967.91)" fill="#233862"/>
      <path id="Path_220" data-name="Path 220" d="M1715.322,1104.634l19.513,141.419s8.569,2.067,15.234.414c0,0,5.712-75.213,5.236-93.4s4.1-48.656-1.044-52.016S1715.322,1104.634,1715.322,1104.634Z" transform="translate(-1671.046 -971.256)" fill="#2b478b"/>
      <path id="Path_221" data-name="Path 221" d="M1719.013,741.868a36.7,36.7,0,0,0,10.642-2.88c4.674-2.032,10.571.206,12.485,1.214a2.843,2.843,0,0,0-.467-1.152,2.569,2.569,0,0,1,.986,1.462c.089.065.128.11.105.125a3.29,3.29,0,0,1,1.6.1s-.438-.062-.594.219a.252.252,0,0,1-.07.077c7.292,3.523,7.965,15.047,5.618,17.713-2.823,3.208-6.208,10.432-6.208,10.432a6.2,6.2,0,0,1-.721-4.53c.513-2.823-1.924-2.823-5-4.106s-.513-4.876-3.208-7.057-12.575-.9-12.446-2.566C1718.063,749.587,1719.013,742.244,1719.013,741.868Z" transform="translate(-1673.352 -738.164)" fill="#233862"/>
      <path id="Path_222" data-name="Path 222" d="M1719.973,871.636l-4.493,96.391s-37.494.613-36.424-7.872,13.515-85.567,13.515-85.567Z" transform="translate(-1647.678 -824.114)" fill="#e9f3fe"/>
      <path id="Path_223" data-name="Path 223" d="M1785.049,919.79c-2.231,6.692,1.975,29.147,3.474,36.754.329,1.609.549,2.56.549,2.56-5.193,8.447-24.21,8.338-24.21,8.338-3.657-16.165-5.559-41.91-5.559-41.91l14.592-63.964,18.359,16.969s-1.39,10.35-3.109,20.882C1787.791,907.758,1786.256,916.242,1785.049,919.79Z" transform="translate(-1699.368 -817.63)" fill="#22407a"/>
      <path id="Path_224" data-name="Path 224" d="M1734.38,818.528s-.357,1.1-3.135.7c0,0-2.333-.337-2.16-1.565A7.569,7.569,0,0,1,1734.38,818.528Z" transform="translate(-1679.903 -789.258)" fill="#fff"/>
      <path id="Path_225" data-name="Path 225" d="M1628.053,866.88s0,.016-.008.041c-.887.86-25.917,25.161-30.767,34.68-4.937,9.655,22.564,28.891,22.564,28.891a6.4,6.4,0,0,0,3,.426c-1.3,10.676-2.752,20.527-1.89,24.731,1.559,7.6,8.588,10.151,8.588,9.567,0-.186,2.571-27.616,3.968-41.928C1636.5,892.6,1644,862.116,1644,862.116A52.773,52.773,0,0,0,1628.053,866.88Zm-14.9,38.89a.222.222,0,0,1-.037-.146c0-1.39,5.3-4.462,11.045-8.082l.11-.111.011-.008c-.1,2.958-.091,5.86.085,8.562a109.52,109.52,0,0,1-.645,17.1C1620.985,918.813,1613.684,907.343,1613.149,905.77Z" transform="translate(-1594.65 -817.983)" fill="#22407a"/>
      <g id="Group_75" data-name="Group 75" transform="translate(43.946 40.533)">
        <path id="Path_226" data-name="Path 226" d="M1765.322,857.283c.046-.92-4.311-2.191-4.311-2.191s-4.987,6.915-13.2,7.034c0,0,2.341,4.557,5.1,5.737C1752.908,867.863,1765.051,862.746,1765.322,857.283Z" transform="translate(-1735.911 -853.993)" fill="#d9e9f9"/>
        <path id="Path_227" data-name="Path 227" d="M1731.928,864.594s-4.353-2.58-4.368-5.378c0,0-2.811-.352-4.04,1.011,0,0-1.032,4.794.337,7.579C1723.858,867.806,1730.125,866.851,1731.928,864.594Z" transform="translate(-1720.032 -856.622)" fill="#d9e9f9"/>
        <path id="Path_228" data-name="Path 228" d="M1744.074,870.671l-5.9-1.415a.893.893,0,0,0-.749,1.028c.021.961,1.662,3.771,2.389,4S1745.47,872.616,1744.074,870.671Z" transform="translate(-1729.224 -863.114)" fill="#ba4c43"/>
        <path id="Path_229" data-name="Path 229" d="M1764.634,854.82c.046-.92-2.9-2.815-2.9-2.815s-5.708,6.671-13.924,6.791c0,0,2.341,4.557,5.1,5.737C1752.908,864.532,1764.363,860.283,1764.634,854.82Z" transform="translate(-1735.911 -852.005)" fill="#e9f3fe"/>
        <path id="Path_230" data-name="Path 230" d="M1731.99,861.8s-4.4-2.334-4.417-5.131a14.063,14.063,0,0,0-3.885,2.532,8.077,8.077,0,0,0,.233,5.811S1730.188,864.054,1731.99,861.8Z" transform="translate(-1720.095 -855.006)" fill="#e9f3fe"/>
        <g id="Group_74" data-name="Group 74" transform="translate(0 9.404)">
          <path id="Path_231" data-name="Path 231" d="M1714.754,942.294a9.1,9.1,0,0,0,2.9,5.881l2.615,2.409a1.531,1.531,0,0,0,2.24-.179l3.239-4.113a5.461,5.461,0,0,0,1.144-3.9c-.3-3.112-.868-9.109-1.319-14.9-.367-4.689-.662-9.245-.684-12.016-.071-8.849,1.684-37.066,1.684-37.066l-2.121.111a113.608,113.608,0,0,0-8.027,25.856A98.543,98.543,0,0,0,1714.954,916S1713.848,932.119,1714.754,942.294Z" transform="translate(-1714.397 -878.418)" fill="#c65447"/>
          <path id="Path_232" data-name="Path 232" d="M1714.754,989.258a9.1,9.1,0,0,0,2.9,5.881l2.615,2.409a1.531,1.531,0,0,0,2.24-.179l3.239-4.113a5.461,5.461,0,0,0,1.144-3.9c-.3-3.112-.868-9.109-1.319-14.9-5.862-6.586-8.237-15.688-9.148-23.115a98.548,98.548,0,0,0-1.466,11.618S1713.848,979.083,1714.754,989.258Z" transform="translate(-1714.397 -925.382)" fill="#ba4c43"/>
        </g>
      </g>
      <path id="Path_233" data-name="Path 233" d="M1656.8,1051.13a4.058,4.058,0,0,1,4.59-4.061,2.512,2.512,0,0,1,1.7.941c1.672,2.225,3.262,8.7.3,9-1.205.123-2.754-.723-3.947-1.629-1.212-.92-2.647-2.363-2.647-3.885Z" transform="translate(-1633.361 -937.056)" fill="#ffb27d"/>
      <path id="Path_234" data-name="Path 234" d="M1815.428,1025c-5.376-5.6-14.665-16.6-14.336-25.637.439-12.654,14.958-31.487,14.958-31.487-1.354,8.338-2.889,16.823-4.1,20.37C1809.723,994.94,1813.928,1017.4,1815.428,1025Z" transform="translate(-1726.273 -886.089)" fill="#233862"/>
      <path id="Path_235" data-name="Path 235" d="M1810.591,1066.5s-3.865,1.932-6.211.966-5.107-1.692-7.729,1.293-3.175,5.056-2.623,6.16,6.666.69,7.681,0,2.619-2.389,3.637-2.093c2.808.816,5.173-1.326,6.5-3.032C1812.642,1068.766,1810.487,1068.268,1810.591,1066.5Z" transform="translate(-1721.605 -949.598)" fill="#ffb27d"/>
      <path id="Path_236" data-name="Path 236" d="M1800.285,861.568s15.394,1.7,19.023,8.407,22.507,33.87,21.889,45.16-25.75,23.949-25.75,23.949-5.566-2.352-5.65-4.883,17.375-17.656,16.316-20.478-20.282-25.146-22.136-32.507S1800.285,861.568,1800.285,861.568Z" transform="translate(-1725.758 -817.63)" fill="#22407a"/>
      <path id="Path_237" data-name="Path 237" d="M1653.88,948.8l-.11.111c-5.742,3.62-11.045,6.692-11.045,8.082-.768-2.451,6.693-12.691,9.106-14.775C1654.282,940.092,1653.88,948.8,1653.88,948.8Z" transform="translate(-1624.262 -869.348)" fill="#233862"/>
      <path id="Path_238" data-name="Path 238" d="M1768.781,852s-11.686,48.944-9.826,67.382c0,0,4.3-19.7,14.636-35.841,0,0-3.773-3.318-3.568-4.542a12.923,12.923,0,0,1,5.518-.271s-.3-21.1-1.995-23.326A12.35,12.35,0,0,0,1768.781,852Z" transform="translate(-1699.014 -811.472)" fill="#233862"/>
      <path id="Path_239" data-name="Path 239" d="M1712.669,856.666c.238-.14-11.581,47.827-12.568,63.112,0,0,1.171-27.276,1.056-35.137,0,0,4.853-2.57,4.853-3.471s-5.177-3.339-5.177-3.339,3.279-16.8,5.068-18.648S1712.669,856.666,1712.669,856.666Z" transform="translate(-1661.245 -814.473)" fill="#233862"/>
    </g>
    <g id="Group_80" data-name="Group 80" transform="translate(525.55 593.182)">
      <g id="Group_77" data-name="Group 77" transform="translate(0 0)">
        <path id="Path_240" data-name="Path 240" d="M1272.726,1416.556a2.191,2.191,0,0,1,.391,2.343.02.02,0,0,1-.006.012c-.565,1.562-2.433,3.306-4.6,5.048-.277.224-.524.427-.738.615-.056.05-.113.1-.166.149s-.086.079-.127.115c-2.023,1.865-1.261,2.292-4.9,6.076-4.144,4.311-7,4.389-7.809,4-.686-.335.709-2.621,2.254-5.191.075-.124.148-.249.225-.375.206-.341.411-.688.615-1.032,1.812-3.093,1.347-4.545.917-9.148-.349-3.741-5.819-20.9-5.819-20.9l7.94-1.368s2.392,13.663,5.026,15.766c1.409,1.121,2.986,1.135,4.34,1.967.1.058.19.117.281.178A10.422,10.422,0,0,1,1272.726,1416.556Z" transform="translate(-1184.864 -1230.656)" fill="#ffb27d"/>
        <path id="Path_241" data-name="Path 241" d="M1275.672,1448.629a2.191,2.191,0,0,1,.391,2.343.02.02,0,0,1-.006.012c-.692,1.56-2.513,3.3-4.609,5.032-.274.228-.516.437-.731.632-.056.05-.113.1-.166.149s-.086.079-.128.115c-2.023,1.865-1.261,2.292-4.9,6.076-4.144,4.311-7,4.389-7.808,4-.687-.335.709-2.621,2.254-5.191a17.65,17.65,0,0,0,7.386-5.443c2.5-3.184,4.159-7.275,5.858-9.644.1.058.19.117.281.178A10.426,10.426,0,0,1,1275.672,1448.629Z" transform="translate(-1187.81 -1262.728)" fill="#c65447"/>
        <path id="Path_242" data-name="Path 242" d="M1085.529,1407.227c-.49,2.451-3.984,2.042-7.888,1.088s-2.975.18-8.531-.435-7.238-2.686-7.408-3.513c-.151-.733,2.594-.991,5.538-1.331.37-.041.742-.087,1.114-.133,3.324-.417,5.759-2.562,8.778-4.323,2.86-1.669,7.128-8.468,7.128-8.468l7.619.6s-4,6.072-5.544,8.713a9.208,9.208,0,0,0-.748,5.192A9.767,9.767,0,0,1,1085.529,1407.227Z" transform="translate(-1061.696 -1226.285)" fill="#ffb27d"/>
        <path id="Path_243" data-name="Path 243" d="M1077.641,1431.69c-3.9-.954-2.975.18-8.531-.435s-7.238-2.686-7.408-3.513c-.151-.733,2.594-.991,5.538-1.331l.027.057a15.667,15.667,0,0,0,7.956,2.474c3.769.091,7.761-.989,10.364-.947a9.765,9.765,0,0,1-.059,2.606C1085.039,1433.053,1081.545,1432.644,1077.641,1431.69Z" transform="translate(-1061.696 -1249.66)" fill="#c65447"/>
        <path id="Path_244" data-name="Path 244" d="M1153.122,1114.345s-1.815-4.448-3.812-4.629-8.35-1.18-8.8-.272a6.28,6.28,0,0,0,1.361,5.355c1.361,1.18,9.8,3.086,9.8,3.086Z" transform="translate(-1112.336 -1045.306)" fill="#ffb27d"/>
        <path id="Path_245" data-name="Path 245" d="M1210.638,1279.263l16.42,44.189A15.039,15.039,0,0,0,1232,1323a21.272,21.272,0,0,0,4.776-2.325s-4.074-42.43-11.541-51.255S1210.638,1279.263,1210.638,1279.263Z" transform="translate(-1157.608 -1147.039)" fill="#aa413e"/>
        <path id="Path_246" data-name="Path 246" d="M1212.508,1227.571s-47.182-15.954-57.7-12.559-42.116,66.252-42.116,66.252a6.1,6.1,0,0,0,2.659,1.678c1.81.679,6.193.635,6.193.635s28.513-24.44,31.907-31.568,4.752-13.917,8.147-13.238,43.787,16.632,52.952,7.128,6.768-21.853,6.768-21.853Z" transform="translate(-1094.532 -1113.224)" fill="#c65447"/>
        <path id="Path_247" data-name="Path 247" d="M1303.982,970.115c-.753-1.556-1.6-4.318-2.008-9.244.063.489.912,6.7,3.3,10.218,9.813,6.442,28.62,27.953,28.248,32.029,0,0,6.625-11.236,6.739-11.3,0,0,12.22-15.54-2.263-24.441-7.361-4.524-7.324-10.33-7.016-15.374s-2.008-26.756-16.753-21.074c0,0-2.366-1.051-3.426-.894a2.9,2.9,0,0,1,1.306.62,11.445,11.445,0,0,0-6.193,1.185C1300.51,934.908,1295.673,962.468,1303.982,970.115Z" transform="translate(-1214.839 -929.985)" fill="#b5453c"/>
        <path id="Path_248" data-name="Path 248" d="M1317.327,1020.053c-.049.022,4.737,2.508,8.338,1.522,3.387-.923,5.6-5.314,5.553-5.325-1.435-.285-1.848-2.256-1.818-10.726l-.648.128-10.9,2.159s.248,3.431.256,6.663C1318.113,1017.189,1317.949,1019.763,1317.327,1020.053Z" transform="translate(-1226.31 -978.629)" fill="#ffb27d"/>
        <path id="Path_249" data-name="Path 249" d="M1318.8,1008.044s.248,3.431.255,6.663c6.1-.172,9.326-5.737,10.647-8.822Z" transform="translate(-1227.257 -978.861)" fill="#ed975d"/>
        <path id="Path_250" data-name="Path 250" d="M1318.407,962.035s3.2-5.052,3.965-9.372c.548-3.084-1.023-14.515-12.51-12.869a15.6,15.6,0,0,0-6.472,2.447c-2.494,1.684-6.093,5.321-2.069,15.3l1.045,3.37Z" transform="translate(-1214.839 -936.199)" fill="#b5453c"/>
        <path id="Path_251" data-name="Path 251" d="M1304.38,976.492s14.434.238,14.444-8.753,1.88-15.016-7.336-15.548-11.01,2.9-11.744,5.9S1300.625,976.2,1304.38,976.492Z" transform="translate(-1214.877 -944.249)" fill="#ffb27d"/>
        <path id="Path_252" data-name="Path 252" d="M1314.575,948.366s3.952,10.549,10.017,12.109,8.7-.065,8.7-.065a17.176,17.176,0,0,1-5.618-10.147S1317.556,943.345,1314.575,948.366Z" transform="translate(-1224.538 -940.645)" fill="#b5453c"/>
        <path id="Path_253" data-name="Path 253" d="M1304.108,950.966s-2.951,2.355-3.671,4.645-1.044,7-2.417,6.843c0,0-2.978-7.17.369-11.226C1301.937,946.926,1304.108,950.966,1304.108,950.966Z" transform="translate(-1213.091 -942.388)" fill="#b5453c"/>
        <path id="Path_254" data-name="Path 254" d="M1336.973,1112.612c-.779,2.161-3.166,2.718-6.366,2.342-6.1-.713-15.165-4.809-21.7-7.642-9.957-4.316-14.483-.26-17.651-3.008s3.621-8.855-2.263-37.218c-2-9.618,10.65-30.238,10.65-30.238s1.093,5.97,13.191-1.211c.428-.253,5.189,6.8,9.776,15.491,5.056,9.591,9.9,21.175,8.475,27.145C1328.373,1089.653,1339.236,1106.332,1336.973,1112.612Z" transform="translate(-1207.929 -998.016)" fill="#699dee"/>
        <path id="Path_255" data-name="Path 255" d="M1221.566,1039.05l-7.459,30.6s-.928,1.653-2.383,4c-3.415,5.522-9.735,14.9-13.782,15.854-2,.471-6.241-1.19-10.939-3.564a222.2,222.2,0,0,1-19.385-11.521c-.679-4.074,2.865-7.394,2.865-7.394s21.272,8,23.386,8.147c4.605.328,9.292-21.9,13.6-29.306C1210.577,1040.51,1221.566,1039.05,1221.566,1039.05Z" transform="translate(-1129.849 -1000.218)" fill="#699dee"/>
        <path id="Path_256" data-name="Path 256" d="M1312.275,1003.914s-.269,1.142-3.111.966c0,0-2.386-.147-2.313-1.4A7.675,7.675,0,0,1,1312.275,1003.914Z" transform="translate(-1219.564 -977.122)" fill="#fff"/>
        <path id="Path_257" data-name="Path 257" d="M1372.351,1160.772c-.779,2.161-3.166,2.718-6.366,2.342-4.223-1.84-22.465-8.907-22.261-13.7.3-7.09,3.508-7.316,1.245-16.068-1.817-7.026,15.038-20.092,17.727-22.932,5.056,9.591,5.2,10.044,3.772,16.014C1363.752,1137.814,1374.614,1154.492,1372.351,1160.772Z" transform="translate(-1243.308 -1046.176)" fill="#4a75cb"/>
        <path id="Path_258" data-name="Path 258" d="M1246.941,1134.021c-3.415,5.522-9.735,14.9-13.782,15.854-2,.471-6.241-1.19-10.939-3.564a28.422,28.422,0,0,0,10,.548c3.508-.34,4.526-4.639,10.071-11.089C1245.882,1131.588,1246.765,1132.641,1246.941,1134.021Z" transform="translate(-1165.066 -1060.589)" fill="#4a75cb"/>
        <path id="Path_259" data-name="Path 259" d="M1320.792,1170.918s-3.055-2.376-5.941-1.81-4.3,2.546-4.186,3.451,1.641,3.451,3.847,3.677,8.486-1.358,8.486-1.358Z" transform="translate(-1222.016 -1083.913)" fill="#ffb27d"/>
        <path id="Path_260" data-name="Path 260" d="M1343.171,1035.649s11.765.725,15.837,6.405c5.733,8,15.69,40.641,12.975,48.108l-35.794-.151s-.867-4.055.34-6.016,20.82-5.13,21.725-6.034-11.315-17.652-11.315-20.367S1343.171,1035.649,1343.171,1035.649Z" transform="translate(-1238.263 -998.028)" fill="#699dee"/>
      </g>
      <g id="Group_79" data-name="Group 79" transform="translate(44.559 73.132)">
        <g id="Group_78" data-name="Group 78">
          <path id="Path_261" data-name="Path 261" d="M1237.992,1162.627h-43.333l-7.812-27.242h43.267Z" transform="translate(-1186.846 -1135.386)" fill="#1c468a"/>
          <rect id="Rectangle_31" data-name="Rectangle 31" width="56.651" height="1.061" transform="translate(7.96 26.181)" fill="#163560"/>
        </g>
        <path id="Path_262" data-name="Path 262" d="M1247.307,1169.263a1.262,1.262,0,0,1,1.236-1.734,2.484,2.484,0,0,1,2.231,1.734,1.262,1.262,0,0,1-1.236,1.734A2.485,2.485,0,0,1,1247.307,1169.263Z" transform="translate(-1225.735 -1156.085)" fill="#163560"/>
      </g>
    </g>
    <g id="Group_82" data-name="Group 82" transform="translate(390.02 553.957)">
      <path id="Path_263" data-name="Path 263" d="M948.067,1030.312s4.737-3.871,6.438-3.891,4.935-.871,4.807-.318-2.85,1.276-2.383,1.531,4.425-.808,5.531-.17,3.7,3.276,1.616,4.425-8.338,2.978-9.955,2.765-5.275-.468-5.275-.468Z" transform="translate(-852.994 -952.535)" fill="#ffb27d"/>
      <path id="Path_264" data-name="Path 264" d="M778.171,1442.545l3.972,16.731,5.95-.034.218-16.7Z" transform="translate(-743.59 -1220.824)" fill="#ffb27d"/>
      <path id="Path_265" data-name="Path 265" d="M918.744,1440.565l11.3,16.018,4.405-5.656-6.8-12.564Z" transform="translate(-834.112 -1218.131)" fill="#ffb27d"/>
      <path id="Path_266" data-name="Path 266" d="M744.766,839.952v0a.736.736,0,0,0-.01-.122c-.075-.834-.17-1.657-.283-2.478v0a54.2,54.2,0,0,0-1.426-7.075c-.344-1.236-.718-2.389-1.123-3.427-.061-.16-.122-.31-.181-.463l0,0c-.967-2.358-2.069-4.053-3.2-4.693a11.559,11.559,0,0,0-6.238-1.194,2.923,2.923,0,0,1,1.317-.623c-1.068-.16-3.451.9-3.451.9-14.852-5.721-17.187,16.146-16.874,21.227s-4.993,6.739-12.718,10.741c-14.744,7.637-16.037,17.864-16.037,17.864.112.068.235.147.361.235.732-1.239,2.239-3.567,3.509-3.917a52.345,52.345,0,0,0-2.045,4.973c1.862,1.419,4.411,3.567,7.168,5.973l0,0c3.689,3.216,7.743,6.888,10.986,9.863a8.353,8.353,0,0,1,.388-3.219l.62,3.73.082.487c2.069,1.9,3.7,3.42,4.526,4.2.085.078.16.15.228.211.241.224.371.347.371.347-.119-1.3,1.712-4.383,4.581-8.182.2-.265.405-.534.616-.806.923-1.2,1.94-2.454,3.026-3.744.391-.466.786-.932,1.194-1.406a0,0,0,0,1,0,0c.327-.381.657-.759,1-1.143l0,0c.8-.912,1.63-1.828,2.471-2.743,2.178-2.372,4.458-4.71,6.684-6.834a67.95,67.95,0,0,1,8.872-7.4c.1-.139.187-.283.272-.429a15.392,15.392,0,0,0,1.215-2.5c.105-.266.2-.534.3-.8a36.369,36.369,0,0,0,1.528-6.432,37.275,37.275,0,0,1-1.058,6.555c-.1.347-.191.667-.289.963v0a13.622,13.622,0,0,1-.66,1.668,9.153,9.153,0,0,0,1.191-1.348,10.723,10.723,0,0,0,.671-1.042C744.835,853.525,745.369,846.606,744.766,839.952Z" transform="translate(-683.298 -819.817)" fill="#163560"/>
      <path id="Path_267" data-name="Path 267" d="M811.075,910.535c.05.022-4.772,2.526-8.4,1.534-3.411-.93-5.64-5.353-5.593-5.363,1.445-.287,1.861-2.272,1.831-10.8l.653.129,10.981,2.174s-.25,3.456-.257,6.711C810.283,907.651,810.449,910.243,811.075,910.535Z" transform="translate(-755.768 -868.813)" fill="#ffb27d"/>
      <path id="Path_268" data-name="Path 268" d="M801.505,830.316s5.417-5.767,12.217-.3C813.722,830.021,809.765,829.337,801.505,830.316Z" transform="translate(-758.615 -824.87)" fill="#e37970"/>
      <path id="Path_269" data-name="Path 269" d="M815.042,898.439s-.25,3.455-.257,6.711c-6.145-.173-9.393-5.779-10.723-8.885Z" transform="translate(-760.261 -869.046)" fill="#ed975d"/>
      <path id="Path_270" data-name="Path 270" d="M793.483,852.1s-3.22-5.088-3.993-9.438c-.552-3.106,1.03-14.62,12.6-12.961a15.72,15.72,0,0,1,6.519,2.464c2.512,1.7,6.137,5.359,2.084,15.406l-1.053,3.394Z" transform="translate(-750.818 -826.077)" fill="#163560"/>
      <path id="Path_271" data-name="Path 271" d="M845.094,1233.53l-5.82.178-6.3.193s-14.553-16.2-22.716-42.177q-.286-.905-.6-1.833c-4.467-13.026-13.729-29.378-18.61-44.178-.777-2.357-1.474-4.577-2.1-6.677-.2-.673-.4-1.333-.581-1.984a156.992,156.992,0,0,1-5.6-29.469l35.243.282A656.939,656.939,0,0,0,845.094,1233.53Z" transform="translate(-746.547 -1005.125)" fill="#2b478b"/>
      <path id="Path_272" data-name="Path 272" d="M785.755,968.893c-.089,16.77,2.46,23.966,2.46,23.966a47.357,47.357,0,0,1-33.024,2.023c-.211-.066-14.849-3.407-14.849-3.407.3-.679,2.969-11.981,3.261-12.6,3.787-8.131,6.662-11.7,7.111-14.2a53.169,53.169,0,0,0,.436-14.05,112.749,112.749,0,0,0-4.349-22.065c4.887-1.112,9.463-3.066,14.549-4.973,1.17,1.457,4.746,2.981,7.849,2.911,3.572-.079,4.731-1.608,4.545-3.278,3.807,2.118,6.845,4.12,6.845,4.12,3.235,5.62,9.8,11.078,10.273,19.7C790.979,949.159,785.758,968.423,785.755,968.893Z" transform="translate(-719.229 -886.404)" fill="#e7f1fd"/>
      <path id="Path_273" data-name="Path 273" d="M814.058,866.661s-14.538.24-14.548-8.816-1.893-15.124,7.389-15.66,11.089,2.918,11.828,5.94S817.839,866.365,814.058,866.661Z" transform="translate(-757.225 -834.185)" fill="#ffb27d"/>
      <path id="Path_274" data-name="Path 274" d="M805.065,838.333s-3.981,10.625-10.09,12.2-8.758-.066-8.758-.066a17.3,17.3,0,0,0,5.658-10.22S802.063,833.276,805.065,838.333Z" transform="translate(-748.771 -830.555)" fill="#163560"/>
      <path id="Path_275" data-name="Path 275" d="M836.383,840.951s2.973,2.372,3.7,4.678,1.051,7.053,2.434,6.892c0,0,3-7.221-.371-11.306C838.57,836.883,836.383,840.951,836.383,840.951Z" transform="translate(-781.075 -832.311)" fill="#163560"/>
      <path id="Path_276" data-name="Path 276" d="M787.229,1486.908a16.124,16.124,0,0,1-.758,6.86s-.974,4.438,3.4,4.52,5.442-.33,4.947-3.051-1.436-7.427-1.436-7.427Z" transform="translate(-748.875 -1249.392)" fill="#ffb27d"/>
      <path id="Path_277" data-name="Path 277" d="M794.2,1513.122h-9.572c-.391-1.968.475-6.167.618-6.973.01-.061.02-.105.027-.136a.413.413,0,0,1,.007-.044c4.945,4.533,8.042-.116,8.042-.116a.13.13,0,0,1,.01.024C794.057,1507.653,794.211,1512.428,794.2,1513.122Z" transform="translate(-747.683 -1261.592)" fill="#c45446"/>
      <path id="Path_278" data-name="Path 278" d="M962.557,1487.143s-8.057-8.943-10.531-13.493l-5.991,3.069,13.392,12.577,3.133-.412Z" transform="translate(-851.686 -1240.854)" fill="#ffb27d"/>
      <path id="Path_279" data-name="Path 279" d="M964.928,1497.936H954.791c-1.493,0-2.685-2.474-4.293-5.69a5.41,5.41,0,0,0-3.648-2.438l.04,8.129H944.55l-2.153-8.6c-1.428-2.622-.114-5,.891-7.07,1.167,0,4.309.8,10.26,7.5a7.805,7.805,0,0,0,6.261,2.921.484.484,0,0,0,.089.047C964.846,1494.967,964.928,1497.936,964.928,1497.936Z" transform="translate(-848.939 -1246.405)" fill="#c45446"/>
      <path id="Path_280" data-name="Path 280" d="M849.4,1279.883l-6.3.193s-14.553-16.2-22.716-42.177q-.286-.905-.6-1.833c-4.467-13.026-13.729-29.378-18.609-44.178-.777-2.357-1.474-4.577-2.1-6.677-.2-.673-.4-1.333-.581-1.984l5.19-3.939s15.582,25.232,20.405,48.977C828.273,1248.893,845.054,1273.711,849.4,1279.883Z" transform="translate(-756.672 -1051.301)" fill="#233862"/>
      <path id="Path_281" data-name="Path 281" d="M765.767,1218.368c.089,11.547-.495,38.1-2,49.085h-5.581c-3.085,0-4.624-.044-4.624-.044-3.772-19.109-6.456-34.921-8.411-48.546-1.6-11.181-3.028-20.767-4.123-29.019-1.1-8.3-1.87-15.258-2.145-21.133-.042-.925-.074-1.825-.091-2.7s-.022-1.732-.015-2.56l30.451-2.968C768.847,1180.716,765.718,1211.656,765.767,1218.368Z" transform="translate(-718.221 -1039.19)" fill="#2b478b"/>
      <path id="Path_282" data-name="Path 282" d="M758.386,1282.334c-3.085,0-4.624-.044-4.624-.044-3.772-19.109-6.456-34.921-8.411-48.546-1.6-11.181-3.028-20.767-4.123-29.019-1.1-8.3-1.87-15.258-2.145-21.133l11.174,6.573s-7.132,2.516-4.411,21.563S754.6,1279.637,758.386,1282.334Z" transform="translate(-718.419 -1054.07)" fill="#233862"/>
      <path id="Path_283" data-name="Path 283" d="M747.527,1016.5s-2.145,7.75-9.566,6.76-17.974-5.442-17.974-5.442,3.171-10.021,7.115-23.186c4.774-15.938,5.962-38.339,8.748-51.3.781-3.631,6.037-4.81,6.235-6.982l6.157-11.945s9.18,20.6,9.675,25.8S747.527,1016.5,747.527,1016.5Z" transform="translate(-706.122 -887.17)" fill="#f99746"/>
      <path id="Path_284" data-name="Path 284" d="M755.206,1012.409c-.331,8.411-3.274,22.756-15.1,29.063-.046.025-.094.047-.141.067,4.774-15.938,4.713-31.23,7.5-44.189C753.822,996.026,755.387,1007.778,755.206,1012.409Z" transform="translate(-718.989 -934.073)" fill="#ed7d2b"/>
      <g id="Group_81" data-name="Group 81" transform="translate(101.463 73.306)">
        <path id="Path_285" data-name="Path 285" d="M977.552,1025.7h-11.4c-.007.054-.017.272-.034.578-.044,1.031-.116,3.056-.1,3.244a5.031,5.031,0,0,0,3.468,4.387h0a.109.109,0,0,0,.024.014,7.661,7.661,0,0,0,1.127.337,6.448,6.448,0,0,0,.769.119,4.137,4.137,0,0,0,.442.024,5.7,5.7,0,0,0,2.338-.5,5.764,5.764,0,0,0,3.41-5.245v-2.239A5.643,5.643,0,0,0,977.552,1025.7Z" transform="translate(-966.016 -1025.705)" fill="#c45446"/>
        <path id="Path_286" data-name="Path 286" d="M984.1,1025.7H982.55a5.577,5.577,0,0,1,.048.719v2.239a5.74,5.74,0,0,1-1.647,4.019,5.822,5.822,0,0,1-1.766,1.225,5.711,5.711,0,0,1-1.069.357c-.16.037-.323.065-.49.088a5.218,5.218,0,0,0,.772.054,4.607,4.607,0,0,0,.487-.024,5.526,5.526,0,0,0,1.848-.476,5.809,5.809,0,0,0,2.573-2.274l0,0a5.8,5.8,0,0,0,.575-1.276,5.673,5.673,0,0,0,.255-1.691v-2.239A5.577,5.577,0,0,0,984.1,1025.7Z" transform="translate(-973.492 -1025.705)" fill="#e37970"/>
        <rect id="Rectangle_32" data-name="Rectangle 32" width="4.69" height="0.702" transform="translate(8.186 8.904) rotate(180)" fill="#c45446"/>
      </g>
      <path id="Path_287" data-name="Path 287" d="M739.526,1091.525s5.3-1.145,6.665.369,2.127,3.919.766,4.765-5.3-1.475-6.722-.539c-1.016.67-1.337,2.375-2.357,1.779s-2.1-4.5-2.1-4.5Z" transform="translate(-716.293 -994.516)" fill="#ffb27d"/>
      <path id="Path_288" data-name="Path 288" d="M723.165,924.41s-14.307.628-17.746,3.822S681.39,956.1,681.049,962.566s18.038,24.845,18.038,24.845,5.1-1.229,7.317-4.443c0,0-11.4-20.329-10.721-21.216s19.995-16.713,21.577-13.2C718.626,951.575,723.165,924.41,723.165,924.41Z" transform="translate(-681.045 -887.17)" fill="#f99746"/>
      <path id="Path_289" data-name="Path 289" d="M876.188,962.084s-16.336,5.445-18.378,4.991-4.958-22.589-6.535-30.176c-2.031-9.771-9.773-11.714-9.773-11.714l-7.346-1.965s8.411,20.78,8.659,24.985.989,68.769.989,68.769-.495,2.968,5.195,1.731,7.174-2.474,7.174-2.474-2.466-18.048-3.625-34.072c5.8-.99,24.435-10.437,24.435-10.437C879.875,967.182,876.188,962.084,876.188,962.084Z" transform="translate(-779.641 -886.404)" fill="#f99746"/>
    </g>
    <g id="Group_89" data-name="Group 89" transform="translate(494.792 693.497)">
      <g id="Group_83" data-name="Group 83" transform="translate(16.607 5.65)">
        <path id="Path_290" data-name="Path 290" d="M1042.778,1227.789l-2.975,16.858v0l-8.217,46.568-7.346,41.63a1.34,1.34,0,0,1-1.33,1.092.941.941,0,0,1-.95-1.054l6.335-47.192,6.775-50.48,1.023-7.616Z" transform="translate(-1021.951 -1227.598)" fill="#c69d7f"/>
      </g>
      <g id="Group_84" data-name="Group 84" transform="translate(49.133 5.65)">
        <path id="Path_291" data-name="Path 291" d="M1134.131,1227.789l-2.975,16.858v0l-8.217,46.568-7.346,41.63a1.339,1.339,0,0,1-1.329,1.092.941.941,0,0,1-.95-1.054l6.335-47.192,6.775-50.48,1.023-7.616Z" transform="translate(-1113.304 -1227.598)" fill="#c69d7f"/>
      </g>
      <path id="Path_292" data-name="Path 292" d="M1063.529,1244.648c.39-7.245-4.733-9.434-4.733-9.434l1.023-7.616,6.685.191Z" transform="translate(-1029.071 -1221.948)" fill="#a0795f"/>
      <g id="Group_86" data-name="Group 86" transform="translate(298.16 5.65)">
        <g id="Group_85" data-name="Group 85">
          <path id="Path_293" data-name="Path 293" d="M1832.593,1333.94a1.344,1.344,0,0,1-1.331-1.092l-6.525-36.988-9.386-53.2-2.625-14.875,6.686-.191,1.16,8.635,8.144,60.683,4.828,35.97A.942.942,0,0,1,1832.593,1333.94Z" transform="translate(-1812.726 -1227.598)" fill="#c69d7f"/>
        </g>
        <path id="Path_294" data-name="Path 294" d="M1820.571,1236.233a9.592,9.592,0,0,0-5.221,6.431l-2.625-14.875,6.686-.191Z" transform="translate(-1812.726 -1227.598)" fill="#a0795f"/>
      </g>
      <g id="Group_88" data-name="Group 88" transform="translate(335.644 5.65)">
        <g id="Group_87" data-name="Group 87">
          <path id="Path_295" data-name="Path 295" d="M1937.87,1333.94a1.343,1.343,0,0,1-1.331-1.092l-6.526-36.988-9.386-53.2L1918,1227.789l6.685-.191,1.16,8.635,8.145,60.683,4.828,35.97A.942.942,0,0,1,1937.87,1333.94Z" transform="translate(-1918.002 -1227.598)" fill="#c69d7f"/>
        </g>
        <path id="Path_296" data-name="Path 296" d="M1925.847,1236.233a9.591,9.591,0,0,0-5.22,6.431L1918,1227.789l6.685-.191Z" transform="translate(-1918.002 -1227.598)" fill="#a0795f"/>
      </g>
      <path id="Rectangle_33" data-name="Rectangle 33" d="M5.84,0H354.547a5.84,5.84,0,0,1,5.84,5.84v0a5.84,5.84,0,0,1-5.84,5.84H5.84A5.84,5.84,0,0,1,0,5.841v0A5.84,5.84,0,0,1,5.84,0Z" transform="translate(0 0)" fill="#e0b594"/>
    </g>
    <g id="Group_90" data-name="Group 90" transform="translate(556.033 684.606)">
      <path id="Path_297" data-name="Path 297" d="M1161.15,1188.624a3.782,3.782,0,0,0-2.347-.044v-1.1a5.669,5.669,0,0,0-.047-.718h-11.4a5.761,5.761,0,0,0-.047.718v2.237a5.738,5.738,0,0,0,10.054,3.789h0s2.712-.667,3.563-1.678S1162.054,1189.182,1161.15,1188.624Zm-.6,2.068c-.288.744-1.581,1.144-2.219,1.3a5.683,5.683,0,0,0,.459-1.891,1.68,1.68,0,0,1,1.471-.772C1160.666,1189.4,1160.912,1189.751,1160.548,1190.692Z" transform="translate(-1147.311 -1186.761)" fill="#c45446"/>
      <path id="Path_298" data-name="Path 298" d="M1149.932,1187.478v2.237a5.763,5.763,0,0,0,5.744,5.747,5.328,5.328,0,0,0,.772-.056,5.763,5.763,0,0,1-4.972-5.691v-2.237a5.63,5.63,0,0,1,.047-.718h-1.544A5.586,5.586,0,0,0,1149.932,1187.478Z" transform="translate(-1148.999 -1186.76)" fill="#e37970"/>
      <rect id="Rectangle_34" data-name="Rectangle 34" width="4.69" height="0.702" transform="translate(3.397 8.2)" fill="#c45446"/>
    </g>
    <g id="Group_91" data-name="Group 91" transform="translate(718.005 684.606)">
      <path id="Path_299" data-name="Path 299" d="M1616.068,1188.624a3.783,3.783,0,0,0-2.348-.044v-1.1a5.761,5.761,0,0,0-.047-.718h-11.4a5.715,5.715,0,0,0-.047.718v2.237a5.738,5.738,0,0,0,10.054,3.789h0s2.712-.667,3.563-1.678S1616.973,1189.182,1616.068,1188.624Zm-.6,2.068c-.287.744-1.581,1.144-2.219,1.3a5.68,5.68,0,0,0,.459-1.891,1.68,1.68,0,0,1,1.471-.772C1615.584,1189.4,1615.831,1189.751,1615.466,1190.692Z" transform="translate(-1602.229 -1186.761)" fill="#c45446"/>
      <path id="Path_300" data-name="Path 300" d="M1604.851,1187.478v2.237a5.763,5.763,0,0,0,5.744,5.747,5.318,5.318,0,0,0,.772-.056,5.763,5.763,0,0,1-4.972-5.691v-2.237a5.564,5.564,0,0,1,.047-.718H1604.9A5.7,5.7,0,0,0,1604.851,1187.478Z" transform="translate(-1603.918 -1186.76)" fill="#e37970"/>
      <rect id="Rectangle_35" data-name="Rectangle 35" width="4.69" height="0.702" transform="translate(3.397 8.2)" fill="#c45446"/>
    </g>
    <path id="Path_301" data-name="Path 301" d="M354.336,965.2v199.768h-52.7s-.793-7.768-1.028-20.314c-.132-7.308-.085-16.242.429-26.2.044-.811.088-1.637.136-2.466.269-4.566.629-9.338,1.116-14.253.044-.436.089-.874.136-1.313.531-5.141,1.191-10.481,2.014-15.97.671-4.458,1.443-9.022,2.348-13.654.061-.324.126-.652.19-.979q.7-3.537,1.5-7.126.311-1.406.64-2.821.643-2.759,1.348-5.538,1.715-6.808,3.836-13.692c.143-.463.289-.937.432-1.411q.965-3.062,2.015-6.141,1.6-4.676,3.41-9.352c.752-1.954,1.542-3.9,2.355-5.852A198.987,198.987,0,0,1,354.336,965.2Z" transform="translate(-46 -359.479)" fill="#deedff"/>
    <path id="Rectangle_36" data-name="Rectangle 36" d="M1.732,0H969.1a1.732,1.732,0,0,1,1.732,1.732v0A1.732,1.732,0,0,1,969.1,3.464H1.732A1.732,1.732,0,0,1,0,1.732v0A1.732,1.732,0,0,1,1.732,0Z" transform="translate(229.109 805.361)" fill="#2e3552"/>
  </g>
</svg>
